# xmcd
#
# Track frame offsets:
#	150
#	14900
#	28852
#	44317
#	60597
#	72860
#	87270
#	100302
#	112347
#	126132
#	140197
#	153230
#	166150
#	180987
#	194067
#	206900
#	220897
#	234032
#	248000
#	261642
#	275917
#	287760
#
# Disc length: 4036 seconds
#
# Revision: 1
# Processed by: cddbd v1.5.1PL0 Copyright (c) Steve Scherf et al.
# Submitted via: audiograbber 1.83.01
#
DISCID=5a0fc216
DTITLE=Πόλυ Πάνου - Μιά κυρία τσα μπουζούκια
DYEAR=1900
DGENRE=Ballad
TTITLE0=Πάρε το δακτυλίδι μου
TTITLE1=Αναψε το τσιγάρο
TTITLE2=Τα δάκρυα
TTITLE3=Φωτιά
TTITLE4=Της ταβέρνας το ρολόι
TTITLE5=Μονότερμα
TTITLE6=Αλλα μου λέν' τα μάτια σου
TTITLE7=Στης αμαρτίας το στρατί
TTITLE8=Ηρθες αργά
TTITLE9=Γλυκεία μητέρα
TTITLE10=Τις θυσίες που έχω κάνει
TTITLE11=Ο χωρισμός
TTITLE12=Ο αλήτης μου
TTITLE13=Εγώ δεν θέλω δώρα
TTITLE14=Φέρτε μου να πιώ
TTITLE15=Με μάτια δακρυσμένα
TTITLE16=Αν θες να μάθεις
TTITLE17=Δεν σ'αλλάζω - δεν σ'αλλάζω
TTITLE18=Μην με σπρώχνεις μεσ' τον βούρκο κοινωνία
TTITLE19=Το λες μα δεν το κάνεις
TTITLE20=μ'εχεις αδικήσει
TTITLE21=Πάμε σε κέντρα κοσμικά
EXTD=
EXTT0=
EXTT1=
EXTT2=
EXTT3=
EXTT4=
EXTT5=
EXTT6=
EXTT7=
EXTT8=
EXTT9=
EXTT10=
EXTT11=
EXTT12=
EXTT13=
EXTT14=
EXTT15=
EXTT16=
EXTT17=
EXTT18=
EXTT19=
EXTT20=
EXTT21=
PLAYORDER=
